<?xml version="1.0" encoding="UTF-8"?>
<svg version="1.1" xmlns="http://www.w3.org/2000/svg" width="1601" height="1067">
<path d="M0 0 C6.13093331 -0.21727499 10.94750254 0.84290298 16.59765625 3.16015625 C17.40847656 3.47339844 18.21929688 3.78664063 19.0546875 4.109375 C26.69750441 7.23317577 26.69750441 7.23317577 28.59765625 11.16015625 C28.59765625 12.15015625 28.59765625 13.14015625 28.59765625 14.16015625 C29.25765625 14.16015625 29.91765625 14.16015625 30.59765625 14.16015625 C30.92765625 17.13015625 31.25765625 20.10015625 31.59765625 23.16015625 C32.25765625 23.16015625 32.91765625 23.16015625 33.59765625 23.16015625 C36.86607908 33.98680687 36.10277708 45.18092298 33.59765625 56.16015625 C32.93765625 56.49015625 32.27765625 56.82015625 31.59765625 57.16015625 C31.01612273 59.53971073 31.01612273 59.53971073 30.66015625 62.34765625 C29.930521 66.84707361 28.63577335 70.08392205 26.59765625 74.16015625 C26.07291048 77.15021705 25.79280058 80.13205457 25.59765625 83.16015625 C24.11265625 83.65515625 24.11265625 83.65515625 22.59765625 84.16015625 C22.59765625 86.14015625 22.59765625 88.12015625 22.59765625 90.16015625 C27.10372367 90.87451592 31.43122572 91.28703912 35.99198437 91.29602814 C37.24006034 91.30088588 38.48813631 91.30574363 39.77403277 91.31074858 C41.1459199 91.31113377 42.51780705 91.31142956 43.88969421 91.31164551 C45.35719013 91.31549858 46.82468496 91.31978661 48.29217845 91.324471 C52.31619854 91.33607913 56.34020732 91.34158755 60.36424077 91.34610581 C64.70711988 91.35206683 69.04998405 91.36373142 73.39285278 91.3747406 C80.91525057 91.39307333 88.43764872 91.40792546 95.96005821 91.42051697 C106.8405321 91.43882108 117.72098457 91.46348501 128.60144148 91.48989087 C146.26041046 91.53266694 163.91938534 91.57178703 181.57836914 91.60791016 C182.63502963 91.61007296 183.69169012 91.61223576 184.78037063 91.6144641 C193.35581304 91.63198885 201.93125581 91.64933602 210.50669861 91.66666698 C218.00715145 91.6818312 225.50760415 91.69706341 233.00805664 91.71240234 C234.06433939 91.71456121 235.12062215 91.71672008 236.20891347 91.71894437 C253.80571607 91.75502927 271.40250784 91.79497827 288.99929553 91.83770514 C299.8563081 91.8638789 310.71331734 91.88653366 321.57034633 91.90468872 C329.00374592 91.91733865 336.43713265 91.93345834 343.870519 91.95233786 C348.16260339 91.96311217 352.4546753 91.97222548 356.74677086 91.97703362 C360.67269995 91.98145665 364.59859143 91.99039386 368.52450261 92.00297683 C369.94763561 92.00672226 371.37077423 92.00877415 372.79391214 92.00899702 C374.7228986 92.00953609 376.65187981 92.01672909 378.58085155 92.02428436 C380.19049008 92.02745832 380.19049008 92.02745832 381.83264655 92.03069639 C384.59765625 92.16015625 384.59765625 92.16015625 388.59765625 93.16015625 C388.59765625 96.13015625 388.59765625 99.10015625 388.59765625 102.16015625 C387.93765625 102.16015625 387.27765625 102.16015625 386.59765625 102.16015625 C386.59765625 122.29015625 386.59765625 142.42015625 386.59765625 163.16015625 C387.25765625 163.16015625 387.91765625 163.16015625 388.59765625 163.16015625 C388.59765625 166.13015625 388.59765625 169.10015625 388.59765625 172.16015625 C387.93765625 172.16015625 387.27765625 172.16015625 386.59765625 172.16015625 C386.59765625 173.15015625 386.59765625 174.14015625 386.59765625 175.16015625 C384.94765625 175.16015625 383.29765625 175.16015625 381.59765625 175.16015625 C381.59765625 175.82015625 381.59765625 176.48015625 381.59765625 177.16015625 C376.97765625 177.16015625 372.35765625 177.16015625 367.59765625 177.16015625 C367.59765625 176.50015625 367.59765625 175.84015625 367.59765625 175.16015625 C364.62765625 175.16015625 361.65765625 175.16015625 358.59765625 175.16015625 C358.59765625 175.82015625 358.59765625 176.48015625 358.59765625 177.16015625 C357.27765625 177.16015625 355.95765625 177.16015625 354.59765625 177.16015625 C354.59765625 176.50015625 354.59765625 175.84015625 354.59765625 175.16015625 C341.06765625 175.16015625 327.53765625 175.16015625 313.59765625 175.16015625 C312.94743508 179.06148328 312.47275619 182.11663618 312.47460842 185.94334221 C312.47261737 186.85748795 312.47062632 187.7716337 312.46857494 188.71348083 C312.47148778 189.70375939 312.47440062 190.69403795 312.47740173 191.71432495 C312.47654731 192.77709156 312.47569288 193.83985817 312.47481257 194.93482983 C312.47316563 198.49547011 312.47866631 202.05606328 312.48413086 205.61669922 C312.48441293 208.16927591 312.48425462 210.72185268 312.48368835 213.27442932 C312.48346064 218.76971918 312.48629685 224.26499387 312.49192619 229.76028061 C312.50005992 237.70549957 312.50265834 245.6507128 312.50391418 253.59593548 C312.50610176 266.48713733 312.51275386 279.37833284 312.5222168 292.26953125 C312.53139853 304.79068978 312.53847564 317.31184659 312.54272461 329.83300781 C312.54298733 330.60506333 312.54325006 331.37711884 312.54352074 332.17256998 C312.5448258 336.04582061 312.5460895 339.91907126 312.54733264 343.79232192 C312.55769608 375.91493797 312.5753064 408.03754623 312.59765625 440.16015625 C311.93765625 440.16015625 311.27765625 440.16015625 310.59765625 440.16015625 C310.59765625 440.82015625 310.59765625 441.48015625 310.59765625 442.16015625 C309.46035767 443.80444336 309.46035767 443.80444336 307.59765625 445.16015625 C304.95834351 445.23657227 304.95834351 445.23657227 301.79443359 444.8515625 C294.64977684 444.12550208 287.62563985 444.04897731 280.44921875 444.09765625 C278.46780111 444.10344208 276.48638343 444.10922225 274.50496483 444.1146698 C271.07750806 444.12548291 267.65008633 444.14303119 264.22265625 444.16015625 C260.10224924 444.18062823 255.98186313 444.19981662 251.86141968 444.21118164 C249.30933847 444.21866698 246.75726533 444.230662 244.20523071 444.24780273 C238.55990174 444.26389566 233.15443095 444.19435356 227.59765625 443.16015625 C227.59765625 443.82015625 227.59765625 444.48015625 227.59765625 445.16015625 C226.60765625 445.16015625 225.61765625 445.16015625 224.59765625 445.16015625 C224.59765625 444.17015625 224.59765625 443.18015625 224.59765625 442.16015625 C223.60765625 441.83015625 222.61765625 441.50015625 221.59765625 441.16015625 C220.78041 434.74668454 220.45812914 428.51152622 220.48413086 422.05053711 C220.48398483 421.08361938 220.48383881 420.11670166 220.48368835 419.1204834 C220.48437963 415.95529867 220.49213496 412.79017433 220.5 409.625 C220.50186697 407.41825899 220.50328956 405.21151757 220.50428772 403.004776 C220.50809091 397.21968424 220.51790228 391.43461791 220.5289917 385.64953613 C220.53925323 379.73706405 220.54379547 373.82458782 220.54882812 367.91210938 C220.55952665 356.32811388 220.57657648 344.74413719 220.59765625 333.16015625 C219.93765625 333.16015625 219.27765625 333.16015625 218.59765625 333.16015625 C218.59765625 325.90015625 218.59765625 318.64015625 218.59765625 311.16015625 C219.25765625 311.16015625 219.91765625 311.16015625 220.59765625 311.16015625 C220.59765625 267.60015625 220.59765625 224.04015625 220.59765625 179.16015625 C217.95765625 178.50015625 215.31765625 177.84015625 212.59765625 177.16015625 C212.59765625 176.50015625 212.59765625 175.84015625 212.59765625 175.16015625 C209.95765625 175.82015625 207.31765625 176.48015625 204.59765625 177.16015625 C204.59765625 176.50015625 204.59765625 175.84015625 204.59765625 175.16015625 C201.28479105 175.29835894 197.97247636 175.44699403 194.66015625 175.59765625 C193.71462891 175.63697266 192.76910156 175.67628906 191.79492188 175.71679688 C190.44624023 175.77963867 190.44624023 175.77963867 189.0703125 175.84375 C188.23765869 175.88040771 187.40500488 175.91706543 186.54711914 175.95483398 C184.59426767 175.95382728 184.59426767 175.95382728 183.59765625 177.16015625 C181.52204819 177.25699206 179.44308421 177.28202527 177.36521912 177.28041077 C176.37775958 177.2816924 176.37775958 177.2816924 175.37035137 177.28299993 C173.14848519 177.28465655 170.9266933 177.27913043 168.70483398 177.27368164 C167.11849977 177.27339978 165.53216543 177.27355748 163.9458313 177.27412415 C159.62576903 177.27441217 155.30573428 177.26851462 150.98567843 177.26155019 C146.4759731 177.2553175 141.9662672 177.25471292 137.45655823 177.25352478 C128.91071251 177.25041121 120.36487951 177.24219749 111.8190394 177.23217529 C102.09247992 177.22101494 92.36591983 177.2155039 82.63935554 177.21047986 C62.62544866 177.20001489 42.61155326 177.18241496 22.59765625 177.16015625 C21.79747741 180.19042223 21.45017878 182.88036189 21.39233398 186.02050781 C21.37238876 186.98120178 21.35244354 187.94189575 21.33189392 188.93170166 C21.31518143 189.96099792 21.29846893 190.99029419 21.28125 192.05078125 C21.25007835 193.6404068 21.25007835 193.6404068 21.21827698 195.262146 C21.15293439 198.64475063 21.09396744 202.02743237 21.03515625 205.41015625 C20.9919565 207.70443503 20.94834174 209.99870604 20.90429688 212.29296875 C20.79726865 217.91528327 20.69547386 223.53767435 20.59765625 229.16015625 C23.42030867 229.96117126 25.92376525 230.28562609 28.85437012 230.28713989 C30.11925011 230.29136963 30.11925011 230.29136963 31.40968323 230.29568481 C32.78566933 230.29264847 32.78566933 230.29264847 34.18945312 230.28955078 C35.16252914 230.2913031 36.13560516 230.29305542 37.13816833 230.29486084 C40.36426568 230.29927014 43.59030832 230.29634092 46.81640625 230.29296875 C49.07206228 230.29364292 51.32771824 230.2946139 53.58337402 230.29586792 C58.32463265 230.29734436 63.06587247 230.29519526 67.80712891 230.29052734 C73.82932825 230.28488226 79.8514825 230.28807587 85.87368011 230.29409981 C90.54282964 230.29775175 95.2119689 230.29654492 99.88111877 230.29397202 C102.09745794 230.29331275 104.3137981 230.29409548 106.53013611 230.29645157 C118.14407755 230.30607314 129.70158804 230.23719655 141.28702545 229.33334541 C145.54347822 229.04796443 148.78324856 228.93568333 152.59765625 231.16015625 C155.00081916 234.76490061 154.84078234 236.36705216 154.82470703 240.65112305 C154.82499908 241.30505035 154.82529114 241.95897766 154.82559204 242.63272095 C154.82419995 244.79174114 154.80864482 246.95041518 154.79296875 249.109375 C154.78923818 250.60724194 154.78639142 252.10511132 154.78439331 253.60298157 C154.77676028 257.54365792 154.7571147 261.48418663 154.73498535 265.42480469 C154.71451978 269.44659427 154.70539007 273.46840772 154.6953125 277.49023438 C154.67386843 285.38027605 154.63973654 293.27019778 154.59765625 301.16015625 C155.25765625 301.16015625 155.91765625 301.16015625 156.59765625 301.16015625 C156.92765625 304.13015625 157.25765625 307.10015625 157.59765625 310.16015625 C156.27765625 310.49015625 154.95765625 310.82015625 153.59765625 311.16015625 C153.59765625 311.82015625 153.59765625 312.48015625 153.59765625 313.16015625 C152.97904063 313.15831266 152.36042501 313.15646908 151.72306347 313.15456963 C136.63109035 313.11029108 121.53913734 313.07725145 106.4471159 313.05653191 C99.14855801 313.04624431 91.85004363 313.03223243 84.55151367 313.00927734 C78.18589221 312.98926605 71.82030227 312.97642155 65.45465022 312.97197926 C62.08792356 312.96938491 58.72128706 312.9633403 55.35458946 312.94869614 C51.58489079 312.93410565 47.81537682 312.93218149 44.0456543 312.93310547 C42.94441223 312.92591492 41.84317017 312.91872437 40.70855713 312.91131592 C33.8014637 312.92954652 27.34638611 313.68770764 20.59765625 315.16015625 C20.623367 316.01275528 20.64907776 316.86535431 20.67556763 317.74378967 C21.37218311 341.12077228 21.9664598 364.49956202 22.3298912 387.88429832 C22.40647781 392.78663477 22.49351213 397.68835629 22.60253906 402.59008789 C22.71019237 407.44243763 22.79329545 412.29462651 22.85879898 417.14772224 C22.88759475 418.97191229 22.92507677 420.795988 22.97167587 422.6198101 C23.03449956 425.13931606 23.06573822 427.65735472 23.08935547 430.17749023 C23.12798958 431.28596062 23.12798958 431.28596062 23.16740417 432.41682434 C23.16795823 436.39462234 22.71620457 438.01237725 20.19192505 441.15907288 C17.59765625 443.16015625 17.59765625 443.16015625 15.59765625 443.16015625 C15.59765625 443.82015625 15.59765625 444.48015625 15.59765625 445.16015625 C9.06512131 445.28578192 9.06512131 445.28578192 6.77032471 444.66908264 C3.85177555 443.98544097 1.08205156 443.99487145 -1.91503906 443.95483398 C-2.55935883 443.94493439 -3.20367859 443.93503479 -3.86752319 443.92483521 C-5.9884682 443.89335196 -8.10943556 443.86851522 -10.23046875 443.84375 C-11.7044939 443.82316907 -13.1785133 443.8021723 -14.65252686 443.78077698 C-18.52566866 443.72567385 -22.3988627 443.67621291 -26.27209473 443.62792969 C-30.22701649 443.57762862 -34.18186273 443.52198754 -38.13671875 443.46679688 C-45.89186307 443.3593592 -53.64707033 443.25788251 -61.40234375 443.16015625 C-61.40234375 443.82015625 -61.40234375 444.48015625 -61.40234375 445.16015625 C-63.05234375 445.16015625 -64.70234375 445.16015625 -66.40234375 445.16015625 C-66.40234375 444.50015625 -66.40234375 443.84015625 -66.40234375 443.16015625 C-67.72234375 442.83015625 -69.04234375 442.50015625 -70.40234375 442.16015625 C-70.40234375 441.50015625 -70.40234375 440.84015625 -70.40234375 440.16015625 C-71.06234375 440.16015625 -71.72234375 440.16015625 -72.40234375 440.16015625 C-74.18197784 437.13934739 -74.59181141 435.39318772 -74.03485966 431.94285679 C-73.41577638 427.47173103 -73.26425515 423.1456742 -73.28208923 418.63694763 C-73.28123481 417.82888155 -73.28038038 417.02081546 -73.27950007 416.18826252 C-73.27786605 413.50756515 -73.28333227 410.82693175 -73.28881836 408.14624023 C-73.28910071 406.21390281 -73.28894157 404.28156527 -73.28837585 402.34922791 C-73.28808974 397.12264535 -73.2939565 391.8960859 -73.30094981 386.6695087 C-73.30721422 381.20025167 -73.30778959 375.73099407 -73.30897522 370.26173401 C-73.31207944 359.913483 -73.32028056 349.5652426 -73.33032471 339.21699625 C-73.34151409 327.43224898 -73.34700341 315.6475012 -73.35202014 303.86274993 C-73.36246394 279.62854617 -73.38004576 255.3943518 -73.40234375 231.16015625 C-74.39234375 230.83015625 -75.38234375 230.50015625 -76.40234375 230.16015625 C-77.39234375 232.14015625 -78.38234375 234.12015625 -79.40234375 236.16015625 C-80.39234375 236.16015625 -81.38234375 236.16015625 -82.40234375 236.16015625 C-82.50546875 236.79953125 -82.60859375 237.43890625 -82.71484375 238.09765625 C-82.94171875 238.77828125 -83.16859375 239.45890625 -83.40234375 240.16015625 C-84.39234375 240.49015625 -85.38234375 240.82015625 -86.40234375 241.16015625 C-86.73234375 241.82015625 -87.06234375 242.48015625 -87.40234375 243.16015625 C-88.06234375 243.16015625 -88.72234375 243.16015625 -89.40234375 243.16015625 C-89.40234375 243.82015625 -89.40234375 244.48015625 -89.40234375 245.16015625 C-90.88734375 246.15015625 -90.88734375 246.15015625 -92.40234375 247.16015625 C-92.73234375 248.15015625 -93.06234375 249.14015625 -93.40234375 250.16015625 C-95.83984375 252.84765625 -95.83984375 252.84765625 -98.40234375 255.16015625 C-99.06234375 255.16015625 -99.72234375 255.16015625 -100.40234375 255.16015625 C-100.74265625 256.24296875 -100.74265625 256.24296875 -101.08984375 257.34765625 C-102.66569503 260.72448042 -104.61110991 262.71782664 -107.40234375 265.16015625 C-108.06234375 265.16015625 -108.72234375 265.16015625 -109.40234375 265.16015625 C-109.40234375 267.80015625 -109.40234375 270.44015625 -109.40234375 273.16015625 C-108.53609375 273.53140625 -108.53609375 273.53140625 -107.65234375 273.91015625 C-103.91637012 275.98569716 -101.7584306 278.09189569 -100.40234375 282.16015625 C-98.82719975 283.570553 -98.82719975 283.570553 -96.96484375 284.91015625 C-93.12469181 288.03713712 -92.42793477 290.40514334 -91.40234375 295.16015625 C-90.74234375 295.49015625 -90.08234375 295.82015625 -89.40234375 296.16015625 C-88.50470492 299.49937271 -87.86161675 302.86379125 -87.18359375 306.25390625 C-86.92578125 307.21296875 -86.66796875 308.17203125 -86.40234375 309.16015625 C-85.74234375 309.49015625 -85.08234375 309.82015625 -84.40234375 310.16015625 C-81.37871219 322.69851831 -81.08614047 335.57750384 -81.02734375 348.41015625 C-81.0196698 349.12389404 -81.01199585 349.83763184 -81.00408936 350.57299805 C-80.93534153 358.57533691 -81.08471726 365.74809316 -84.40234375 373.16015625 C-85.06234375 373.49015625 -85.72234375 373.82015625 -86.40234375 374.16015625 C-87.31265647 376.50402434 -87.31265647 376.50402434 -88.02734375 379.22265625 C-88.28773438 380.14175781 -88.548125 381.06085938 -88.81640625 382.0078125 C-89.00976562 382.71808594 -89.203125 383.42835938 -89.40234375 384.16015625 C-90.06234375 384.16015625 -90.72234375 384.16015625 -91.40234375 384.16015625 C-92.06234375 387.13015625 -92.72234375 390.10015625 -93.40234375 393.16015625 C-94.06234375 393.16015625 -94.72234375 393.16015625 -95.40234375 393.16015625 C-95.67046875 393.92328125 -95.93859375 394.68640625 -96.21484375 395.47265625 C-97.37744105 398.10379751 -98.37525838 399.21753277 -100.40234375 401.16015625 C-101.57809086 403.26005277 -101.57809086 403.26005277 -102.40234375 405.16015625 C-103.06234375 405.16015625 -103.72234375 405.16015625 -104.40234375 405.16015625 C-104.67046875 405.96453125 -104.93859375 406.76890625 -105.21484375 407.59765625 C-105.60671875 408.44328125 -105.99859375 409.28890625 -106.40234375 410.16015625 C-107.39234375 410.49015625 -108.38234375 410.82015625 -109.40234375 411.16015625 C-110.85003379 412.69701478 -110.85003379 412.69701478 -112.21484375 414.53515625 C-114.93172858 417.84678203 -117.45973492 419.40788566 -121.40234375 421.16015625 C-122.11390625 421.90265625 -122.11390625 421.90265625 -122.83984375 422.66015625 C-125.2774899 425.00029656 -128.30506454 425.88805943 -131.40234375 427.16015625 C-132.39234375 427.82015625 -133.38234375 428.48015625 -134.40234375 429.16015625 C-135.39234375 429.16015625 -136.38234375 429.16015625 -137.40234375 429.16015625 C-137.40234375 429.82015625 -137.40234375 430.48015625 -137.40234375 431.16015625 C-139.15051233 431.66652232 -140.90096638 432.16500244 -142.65234375 432.66015625 C-143.626875 432.93859375 -144.60140625 433.21703125 -145.60546875 433.50390625 C-148.40234375 434.16015625 -148.40234375 434.16015625 -152.40234375 434.16015625 C-152.40234375 434.82015625 -152.40234375 435.48015625 -152.40234375 436.16015625 C-166.53680192 440.64512855 -181.97241259 441.30537347 -196.69921875 441.75 C-198.65374969 441.81072693 -198.65374969 441.81072693 -200.64776611 441.87268066 C-221.47412871 442.46128909 -242.32039365 442.22719707 -263.15234375 442.16015625 C-270.63772551 442.13635535 -278.12308675 442.11611377 -285.60849762 442.10421753 C-288.5613553 442.09781954 -291.51414431 442.08533492 -294.46697998 442.07250977 C-303.15987991 442.04898362 -311.76247716 442.04395457 -320.40234375 443.16015625 C-320.40234375 443.82015625 -320.40234375 444.48015625 -320.40234375 445.16015625 C-320.96824219 445.35351562 -321.53414062 445.546875 -322.1171875 445.74609375 C-322.85066406 446.00648438 -323.58414063 446.266875 -324.33984375 446.53515625 C-325.43619141 446.91800781 -325.43619141 446.91800781 -326.5546875 447.30859375 C-328.58916491 448.01287038 -328.58916491 448.01287038 -329.40234375 450.16015625 C-330.51609375 450.46953125 -331.62984375 450.77890625 -332.77734375 451.09765625 C-336.25901018 451.79486478 -336.25901018 451.79486478 -337.6875 453.484375 C-340.2351761 455.97401747 -343.32899536 457.41347354 -346.46484375 459.03515625 C-347.13443115 459.38594238 -347.80401855 459.73672852 -348.49389648 460.09814453 C-350.46019715 461.12508749 -352.43072248 462.14347472 -354.40234375 463.16015625 C-355.39234375 463.67578125 -356.38234375 464.19140625 -357.40234375 464.72265625 C-361.6603487 466.90358561 -365.78729075 468.82421985 -370.40234375 470.16015625 C-370.40234375 470.82015625 -370.40234375 471.48015625 -370.40234375 472.16015625 C-371.837884 472.66575533 -373.27586395 473.16443115 -374.71484375 473.66015625 C-375.91560547 474.0778125 -375.91560547 474.0778125 -377.140625 474.50390625 C-379.40234375 475.16015625 -379.40234375 475.16015625 -382.40234375 475.16015625 C-382.40234375 475.82015625 -382.40234375 476.48015625 -382.40234375 477.16015625 C-383.81773092 477.49888138 -385.23472338 477.83090249 -386.65234375 478.16015625 C-387.44125 478.34578125 -388.23015625 478.53140625 -389.04296875 478.72265625 C-391.40234375 479.16015625 -391.40234375 479.16015625 -395.40234375 479.16015625 C-395.40234375 479.82015625 -395.40234375 480.48015625 -395.40234375 481.16015625 C-412.46820077 486.60670636 -429.67324026 489.16103183 -446.40234375 481.16015625 C-446.40234375 480.50015625 -446.40234375 479.84015625 -446.40234375 479.16015625 C-448.05234375 478.83015625 -449.70234375 478.50015625 -451.40234375 478.16015625 C-451.89734375 476.67515625 -451.89734375 476.67515625 -452.40234375 475.16015625 C-453.11390625 474.44859375 -453.11390625 474.44859375 -453.83984375 473.72265625 C-455.60515222 471.95734778 -456.48867257 470.47947539 -457.40234375 468.16015625 C-457.40234375 466.84015625 -457.40234375 465.52015625 -457.40234375 464.16015625 C-458.06234375 464.16015625 -458.72234375 464.16015625 -459.40234375 464.16015625 C-459.40234375 455.58015625 -459.40234375 447.00015625 -459.40234375 438.16015625 C-458.74234375 438.16015625 -458.08234375 438.16015625 -457.40234375 438.16015625 C-457.07234375 434.86015625 -456.74234375 431.56015625 -456.40234375 428.16015625 C-455.74234375 428.16015625 -455.08234375 428.16015625 -454.40234375 428.16015625 C-454.40234375 426.51015625 -454.40234375 424.86015625 -454.40234375 423.16015625 C-453.74234375 422.83015625 -453.08234375 422.50015625 -452.40234375 422.16015625 C-451.74461947 419.13081134 -451.74461947 419.13081134 -451.40234375 416.16015625 C-450.74234375 416.16015625 -450.08234375 416.16015625 -449.40234375 416.16015625 C-449.46421875 415.14953125 -449.52609375 414.13890625 -449.58984375 413.09765625 C-449.37591548 408.60516253 -448.35620843 406.14929664 -446.40234375 402.16015625 C-445.74234375 402.16015625 -445.08234375 402.16015625 -444.40234375 402.16015625 C-444.07234375 400.51015625 -443.74234375 398.86015625 -443.40234375 397.16015625 C-442.74234375 397.16015625 -442.08234375 397.16015625 -441.40234375 397.16015625 C-441.40234375 395.51015625 -441.40234375 393.86015625 -441.40234375 392.16015625 C-440.74234375 392.16015625 -440.08234375 392.16015625 -439.40234375 392.16015625 C-439.07234375 388.86015625 -438.74234375 385.56015625 -438.40234375 382.16015625 C-437.08234375 381.83015625 -435.76234375 381.50015625 -434.40234375 381.16015625 C-433.96921875 380.66515625 -433.53609375 380.17015625 -433.08984375 379.66015625 C-430.52526509 377.38053077 -427.73021695 377.55842876 -424.40234375 377.16015625 C-424.37529465 380.22271586 -424.35548077 383.28503485 -424.33984375 386.34765625 C-424.33146484 387.21197266 -424.32308594 388.07628906 -424.31445312 388.96679688 C-424.29837563 393.16302394 -424.32675337 397.06952511 -425.40234375 401.16015625 C-426.06234375 401.16015625 -426.72234375 401.16015625 -427.40234375 401.16015625 C-427.28872113 402.64024035 -427.16111467 404.11925699 -427.02734375 405.59765625 C-426.95773437 406.42136719 -426.888125 407.24507812 -426.81640625 408.09375 C-426.67976563 408.77566406 -426.543125 409.45757813 -426.40234375 410.16015625 C-425.74234375 410.49015625 -425.08234375 410.82015625 -424.40234375 411.16015625 C-424.01046875 412.27390625 -423.61859375 413.38765625 -423.21484375 414.53515625 C-421.90978685 417.68796699 -421.45289421 418.12920699 -418.33984375 420.03515625 C-416.43749275 420.68661674 -416.43749275 420.68661674 -414.40234375 421.16015625 C-413.726875 421.33675781 -413.05140625 421.51335937 -412.35546875 421.6953125 C-403.59481075 423.25108452 -394.85373788 420.30522687 -386.40234375 418.16015625 C-386.40234375 417.50015625 -386.40234375 416.84015625 -386.40234375 416.16015625 C-379.96734375 414.67515625 -379.96734375 414.67515625 -373.40234375 413.16015625 C-373.40234375 412.50015625 -373.40234375 411.84015625 -373.40234375 411.16015625 C-372.26796875 410.87140625 -371.13359375 410.58265625 -369.96484375 410.28515625 C-368.78921875 409.91390625 -367.61359375 409.54265625 -366.40234375 409.16015625 C-366.07234375 408.50015625 -365.74234375 407.84015625 -365.40234375 407.16015625 C-362.84680158 406.31274557 -360.26468456 405.68843699 -357.65234375 405.0390625 C-356.90984375 404.74902344 -356.16734375 404.45898438 -355.40234375 404.16015625 C-355.07234375 403.17015625 -354.74234375 402.18015625 -354.40234375 401.16015625 C-352.42234375 400.83015625 -350.44234375 400.50015625 -348.40234375 400.16015625 C-348.40234375 399.50015625 -348.40234375 398.84015625 -348.40234375 398.16015625 C-341.77734375 395.16015625 -341.77734375 395.16015625 -338.40234375 395.16015625 C-338.07234375 394.17015625 -337.74234375 393.18015625 -337.40234375 392.16015625 C-335.42234375 391.83015625 -333.44234375 391.50015625 -331.40234375 391.16015625 C-331.40234375 390.50015625 -331.40234375 389.84015625 -331.40234375 389.16015625 C-325.65234375 386.16015625 -325.65234375 386.16015625 -323.40234375 386.16015625 C-323.40234375 385.50015625 -323.40234375 384.84015625 -323.40234375 384.16015625 C-322.86867188 383.95261719 -322.335 383.74507812 -321.78515625 383.53125 C-316.12900729 381.19246176 -311.44737698 378.2386258 -306.56640625 374.55078125 C-304.40234375 373.16015625 -304.40234375 373.16015625 -301.40234375 373.16015625 C-301.07234375 372.17015625 -300.74234375 371.18015625 -300.40234375 370.16015625 C-299.08587256 369.46078093 -297.75212224 368.79286492 -296.40234375 368.16015625 C-296.07234375 367.50015625 -295.74234375 366.84015625 -295.40234375 366.16015625 C-292.77653237 364.58466942 -291.53134588 364.16015625 -288.40234375 364.16015625 C-288.40234375 363.17015625 -288.40234375 362.18015625 -288.40234375 361.16015625 C-286.09234375 360.50015625 -283.78234375 359.84015625 -281.40234375 359.16015625 C-281.40234375 358.50015625 -281.40234375 357.84015625 -281.40234375 357.16015625 C-277.94080529 354.16015625 -277.94080529 354.16015625 -275.40234375 354.16015625 C-275.40234375 353.50015625 -275.40234375 352.84015625 -275.40234375 352.16015625 C-273.75234375 351.50015625 -272.10234375 350.84015625 -270.40234375 350.16015625 C-270.40234375 349.17015625 -270.40234375 348.18015625 -270.40234375 347.16015625 C-269.22671875 346.75796875 -269.22671875 346.75796875 -268.02734375 346.34765625 C-265.12119452 345.31201193 -265.12119452 345.31201193 -263.40234375 342.16015625 C-262.41234375 341.83015625 -261.42234375 341.50015625 -260.40234375 341.16015625 C-260.07234375 340.17015625 -259.74234375 339.18015625 -259.40234375 338.16015625 C-256.83984375 336.97265625 -256.83984375 336.97265625 -254.40234375 336.16015625 C-254.40234375 335.50015625 -254.40234375 334.84015625 -254.40234375 334.16015625 C-253.45359375 333.72703125 -252.50484375 333.29390625 -251.52734375 332.84765625 C-248.20192438 331.36713424 -248.20192438 331.36713424 -246.40234375 328.16015625 C-245.41234375 327.83015625 -244.42234375 327.50015625 -243.40234375 327.16015625 C-242.74234375 326.17015625 -242.08234375 325.18015625 -241.40234375 324.16015625 C-240.07713872 323.47747487 -238.74422193 322.80945215 -237.40234375 322.16015625 C-237.07234375 321.50015625 -236.74234375 320.84015625 -236.40234375 320.16015625 C-235.41234375 320.16015625 -234.42234375 320.16015625 -233.40234375 320.16015625 C-233.40234375 319.50015625 -233.40234375 318.84015625 -233.40234375 318.16015625 C-232.74234375 318.16015625 -232.08234375 318.16015625 -231.40234375 318.16015625 C-231.40234375 317.50015625 -231.40234375 316.84015625 -231.40234375 316.16015625 C-227.94080529 313.16015625 -227.94080529 313.16015625 -225.40234375 313.16015625 C-225.07234375 312.17015625 -224.74234375 311.18015625 -224.40234375 310.16015625 C-223.74234375 310.16015625 -223.08234375 310.16015625 -222.40234375 310.16015625 C-222.40234375 309.17015625 -222.40234375 308.18015625 -222.40234375 307.16015625 C-221.74234375 307.16015625 -221.08234375 307.16015625 -220.40234375 307.16015625 C-220.03109375 305.98453125 -220.03109375 305.98453125 -219.65234375 304.78515625 C-218.21993895 301.77710617 -217.37141985 301.40525268 -214.40234375 300.16015625 C-214.07234375 299.50015625 -213.74234375 298.84015625 -213.40234375 298.16015625 C-212.45359375 297.70640625 -211.50484375 297.25265625 -210.52734375 296.78515625 C-207.37660766 295.14677349 -206.41650887 293.94162237 -204.40234375 291.16015625 C-203.41234375 291.16015625 -202.42234375 291.16015625 -201.40234375 291.16015625 C-201.07234375 289.51015625 -200.74234375 287.86015625 -200.40234375 286.16015625 C-199.74234375 286.16015625 -199.08234375 286.16015625 -198.40234375 286.16015625 C-198.40234375 285.50015625 -198.40234375 284.84015625 -198.40234375 284.16015625 C-197.74234375 284.16015625 -197.08234375 284.16015625 -196.40234375 284.16015625 C-196.40234375 283.50015625 -196.40234375 282.84015625 -196.40234375 282.16015625 C-195.41234375 281.83015625 -194.42234375 281.50015625 -193.40234375 281.16015625 C-192.74234375 280.17015625 -192.08234375 279.18015625 -191.40234375 278.16015625 C-190.41234375 278.16015625 -189.42234375 278.16015625 -188.40234375 278.16015625 C-188.40234375 277.17015625 -188.40234375 276.18015625 -188.40234375 275.16015625 C-187.76296875 274.87140625 -187.12359375 274.58265625 -186.46484375 274.28515625 C-184.25028296 273.33192174 -184.25028296 273.33192174 -183.40234375 271.16015625 C-182.74234375 271.16015625 -182.08234375 271.16015625 -181.40234375 271.16015625 C-181.40234375 270.50015625 -181.40234375 269.84015625 -181.40234375 269.16015625 C-180.74234375 268.83015625 -180.08234375 268.50015625 -179.40234375 268.16015625 C-179.00015625 267.29390625 -179.00015625 267.29390625 -178.58984375 266.41015625 C-177.00491164 263.40712699 -174.91366839 261.42034842 -172.40234375 259.16015625 C-171.74234375 259.16015625 -171.08234375 259.16015625 -170.40234375 259.16015625 C-170.06203125 258.32484375 -170.06203125 258.32484375 -169.71484375 257.47265625 C-168.02684339 254.49856037 -165.93557858 252.4400676 -163.40234375 250.16015625 C-162.74234375 250.16015625 -162.08234375 250.16015625 -161.40234375 250.16015625 C-161.17546875 249.06703125 -160.94859375 247.97390625 -160.71484375 246.84765625 C-159.40234375 243.16015625 -159.40234375 243.16015625 -156.90234375 241.22265625 C-154.40234375 240.16015625 -154.40234375 240.16015625 -152.40234375 240.16015625 C-152.07234375 239.17015625 -151.74234375 238.18015625 -151.40234375 237.16015625 C-150.41234375 236.83015625 -149.42234375 236.50015625 -148.40234375 236.16015625 C-147.39591427 234.83166934 -146.39542196 233.49865296 -145.40234375 232.16015625 C-144.74234375 232.16015625 -144.08234375 232.16015625 -143.40234375 232.16015625 C-143.40234375 231.17015625 -143.40234375 230.18015625 -143.40234375 229.16015625 C-142.74234375 229.16015625 -142.08234375 229.16015625 -141.40234375 229.16015625 C-141.40234375 227.18015625 -141.40234375 225.20015625 -141.40234375 223.16015625 C-139.75234375 222.83015625 -138.10234375 222.50015625 -136.40234375 222.16015625 C-136.40234375 221.50015625 -136.40234375 220.84015625 -136.40234375 220.16015625 C-135.76296875 219.56203125 -135.12359375 218.96390625 -134.46484375 218.34765625 C-132.15059919 215.89315444 -131.76842902 214.45492364 -131.40234375 211.16015625 C-129.42234375 210.83015625 -127.44234375 210.50015625 -125.40234375 210.16015625 C-125.40234375 209.17015625 -125.40234375 208.18015625 -125.40234375 207.16015625 C-124.74234375 207.16015625 -124.08234375 207.16015625 -123.40234375 207.16015625 C-123.40234375 206.50015625 -123.40234375 205.84015625 -123.40234375 205.16015625 C-122.41234375 205.16015625 -121.42234375 205.16015625 -120.40234375 205.16015625 C-120.40234375 204.17015625 -120.40234375 203.18015625 -120.40234375 202.16015625 C-119.08234375 201.83015625 -117.76234375 201.50015625 -116.40234375 201.16015625 C-116.27859375 200.62390625 -116.15484375 200.08765625 -116.02734375 199.53515625 C-113.62875884 190.42053361 -113.62875884 190.42053361 -109.40234375 187.16015625 C-106.65234375 186.41015625 -106.65234375 186.41015625 -104.40234375 186.16015625 C-104.40234375 185.17015625 -104.40234375 184.18015625 -104.40234375 183.16015625 C-103.41234375 183.16015625 -102.42234375 183.16015625 -101.40234375 183.16015625 C-101.73234375 180.19015625 -102.06234375 177.22015625 -102.40234375 174.16015625 C-100.12369792 173.76953125 -97.84505208 173.37890625 -95.56640625 172.98828125 C-93.23316446 172.35592947 -93.23316446 172.35592947 -92.23828125 170.14453125 C-91.96242188 169.4896875 -91.6865625 168.83484375 -91.40234375 168.16015625 C-90.74234375 167.83015625 -90.08234375 167.50015625 -89.40234375 167.16015625 C-88.75021083 165.1355237 -88.75021083 165.1355237 -88.40234375 163.16015625 C-87.74234375 163.16015625 -87.08234375 163.16015625 -86.40234375 163.16015625 C-86.40234375 161.84015625 -86.40234375 160.52015625 -86.40234375 159.16015625 C-85.41234375 159.16015625 -84.42234375 159.16015625 -83.40234375 159.16015625 C-83.29921875 158.52078125 -83.19609375 157.88140625 -83.08984375 157.22265625 C-82.86296875 156.54203125 -82.63609375 155.86140625 -82.40234375 155.16015625 C-81.41234375 154.83015625 -80.42234375 154.50015625 -79.40234375 154.16015625 C-78.17714111 151.15168207 -78.17714111 151.15168207 -77.40234375 148.16015625 C-76.74234375 148.16015625 -76.08234375 148.16015625 -75.40234375 148.16015625 C-75.13421875 147.19078125 -74.86609375 146.22140625 -74.58984375 145.22265625 C-74.19796875 144.21203125 -73.80609375 143.20140625 -73.40234375 142.16015625 C-72.41234375 141.83015625 -71.42234375 141.50015625 -70.40234375 141.16015625 C-69.72086145 139.26836422 -69.72086145 139.26836422 -69.40234375 137.16015625 C-69.07234375 136.17015625 -68.74234375 135.18015625 -68.40234375 134.16015625 C-67.74234375 134.16015625 -67.08234375 134.16015625 -66.40234375 134.16015625 C-66.13421875 133.19078125 -65.86609375 132.22140625 -65.58984375 131.22265625 C-65.19796875 130.21203125 -64.80609375 129.20140625 -64.40234375 128.16015625 C-62.91734375 127.66515625 -62.91734375 127.66515625 -61.40234375 127.16015625 C-60.68506597 125.51463663 -60.01909147 123.84593336 -59.40234375 122.16015625 C-58.74234375 121.50015625 -58.08234375 120.84015625 -57.40234375 120.16015625 C-56.3639181 117.84366826 -55.36014625 115.51112601 -54.40234375 113.16015625 C-53.74234375 113.16015625 -53.08234375 113.16015625 -52.40234375 113.16015625 C-52.13421875 112.27328125 -51.86609375 111.38640625 -51.58984375 110.47265625 C-50.40234375 107.16015625 -50.40234375 107.16015625 -48.83984375 104.59765625 C-47.34468658 102.06238975 -46.95766985 100.01611906 -46.40234375 97.16015625 C-45.74234375 96.83015625 -45.08234375 96.50015625 -44.40234375 96.16015625 C-43.49890691 94.27751744 -43.49890691 94.27751744 -42.77734375 92.09765625 C-42.38675781 90.99744141 -42.38675781 90.99744141 -41.98828125 89.875 C-41.79492188 89.30910156 -41.6015625 88.74320312 -41.40234375 88.16015625 C-40.74234375 88.16015625 -40.08234375 88.16015625 -39.40234375 88.16015625 C-38.20588546 84.33148972 -37.29901121 80.7806794 -36.90234375 76.78515625 C-36.73734375 75.58890625 -36.57234375 74.39265625 -36.40234375 73.16015625 C-35.74234375 72.83015625 -35.08234375 72.50015625 -34.40234375 72.16015625 C-31.42851807 62.70632769 -30.53423672 50.38096069 -34.40234375 41.16015625 C-35.06234375 40.83015625 -35.72234375 40.50015625 -36.40234375 40.16015625 C-36.40234375 39.17015625 -36.40234375 38.18015625 -36.40234375 37.16015625 C-37.39234375 36.83015625 -38.38234375 36.50015625 -39.40234375 36.16015625 C-39.40234375 35.50015625 -39.40234375 34.84015625 -39.40234375 34.16015625 C-47.73805555 32.67825193 -56.06663195 32.67825193 -64.40234375 34.16015625 C-64.40234375 34.82015625 -64.40234375 35.48015625 -64.40234375 36.16015625 C-68.03234375 36.16015625 -71.66234375 36.16015625 -75.40234375 36.16015625 C-75.6953125 29.32421875 -75.6953125 29.32421875 -75.40234375 27.16015625 C-72.40234375 25.16015625 -72.40234375 25.16015625 -69.40234375 25.16015625 C-69.40234375 24.50015625 -69.40234375 23.84015625 -69.40234375 23.16015625 C-66.53114672 21.07201296 -64.08696366 20.07079856 -60.65234375 19.09765625 C-59.57984375 18.78828125 -58.50734375 18.47890625 -57.40234375 18.16015625 C-57.07234375 17.50015625 -56.74234375 16.84015625 -56.40234375 16.16015625 C-54.22265625 15.30859375 -54.22265625 15.30859375 -51.52734375 14.53515625 C-50.64304687 14.27476562 -49.75875 14.014375 -48.84765625 13.74609375 C-46.40234375 13.16015625 -46.40234375 13.16015625 -43.40234375 13.16015625 C-43.40234375 12.50015625 -43.40234375 11.84015625 -43.40234375 11.16015625 C-39.78260973 9.84388933 -37.30667244 9.16015625 -33.40234375 9.16015625 C-33.40234375 8.50015625 -33.40234375 7.84015625 -33.40234375 7.16015625 C-32.57992188 6.97839844 -31.7575 6.79664063 -30.91015625 6.609375 C-25.57799354 5.40871481 -20.30253571 4.18597757 -15.08984375 2.53515625 C-10.02726217 0.97806594 -5.26529267 0.35101951 0 0 Z M-183.08984375 342.16015625 C-183.89808594 342.34578125 -184.70632813 342.53140625 -185.5390625 342.72265625 C-186.15394531 342.86703125 -186.76882813 343.01140625 -187.40234375 343.16015625 C-187.40234375 343.82015625 -187.40234375 344.48015625 -187.40234375 345.16015625 C-189.05234375 345.49015625 -190.70234375 345.82015625 -192.40234375 346.16015625 C-192.49515625 347.08828125 -192.49515625 347.08828125 -192.58984375 348.03515625 C-193.40234375 350.16015625 -193.40234375 350.16015625 -195.96484375 351.41015625 C-196.76921875 351.65765625 -197.57359375 351.90515625 -198.40234375 352.16015625 C-198.40234375 352.82015625 -198.40234375 353.48015625 -198.40234375 354.16015625 C-200.40234375 355.16015625 -202.40234375 356.16015625 -204.40234375 357.16015625 C-204.40234375 357.82015625 -204.40234375 358.48015625 -204.40234375 359.16015625 C-205.20671875 359.42828125 -206.01109375 359.69640625 -206.83984375 359.97265625 C-207.68546875 360.36453125 -208.53109375 360.75640625 -209.40234375 361.16015625 C-209.73234375 362.15015625 -210.06234375 363.14015625 -210.40234375 364.16015625 C-203.53847779 366.44811157 -196.11960642 365.54851631 -189.40234375 363.16015625 C-189.40234375 362.50015625 -189.40234375 361.84015625 -189.40234375 361.16015625 C-188.45359375 361.01578125 -187.50484375 360.87140625 -186.52734375 360.72265625 C-183.50889435 360.33080226 -183.50889435 360.33080226 -181.40234375 359.16015625 C-181.40234375 358.17015625 -181.40234375 357.18015625 -181.40234375 356.16015625 C-180.74234375 356.16015625 -180.08234375 356.16015625 -179.40234375 356.16015625 C-178.11787456 353.59121787 -178.07257231 351.39439288 -177.83984375 348.53515625 C-177.75605469 347.53226563 -177.67226563 346.529375 -177.5859375 345.49609375 C-177.49505859 344.33980469 -177.49505859 344.33980469 -177.40234375 343.16015625 C-176.74234375 343.16015625 -176.08234375 343.16015625 -175.40234375 343.16015625 C-175.40234375 342.50015625 -175.40234375 341.84015625 -175.40234375 341.16015625 C-178.20019086 341.16015625 -180.38141155 341.532114 -183.08984375 342.16015625 Z " fill="#FFFFFF" transform="translate(810.40234375,280.83984375)"/>
<path d="M0 0 C1.58636129 -0.00271433 3.17272131 -0.00627774 4.75907898 -0.01062012 C9.05144172 -0.01970567 13.34370782 -0.01621255 17.63607216 -0.00986195 C22.15805938 -0.00476791 26.68003879 -0.00950411 31.20202637 -0.01263428 C38.81129421 -0.01627001 46.42052322 -0.01149137 54.02978516 -0.00195312 C62.76194396 0.00886802 71.49400888 0.00545074 80.22616529 -0.00560594 C87.76808444 -0.01476548 95.30997574 -0.01592044 102.85189867 -0.0107286 C107.33562275 -0.00764788 111.81930321 -0.0070884 116.30302429 -0.01380157 C148.24580641 -0.0547256 148.24580641 -0.0547256 163.5546875 1.08789062 C164.52549507 1.15695492 165.49630264 1.22601921 166.49652863 1.29717636 C172.45696899 1.82261709 177.62909451 3.2020032 183.22851562 5.25878906 C185.5530021 5.96261124 187.88750641 6.61127587 190.22851562 7.25878906 C190.22851562 7.91878906 190.22851562 8.57878906 190.22851562 9.25878906 C191.15664063 9.21753906 192.08476563 9.17628906 193.04101562 9.13378906 C196.22851562 9.25878906 196.22851562 9.25878906 199.22851562 11.25878906 C199.22851562 11.91878906 199.22851562 12.57878906 199.22851562 13.25878906 C200.62070312 13.44441406 200.62070312 13.44441406 202.04101562 13.63378906 C205.22851562 14.25878906 205.22851562 14.25878906 208.22851562 16.25878906 C208.22851562 16.91878906 208.22851562 17.57878906 208.22851562 18.25878906 C208.78539062 18.34128906 209.34226562 18.42378906 209.91601562 18.50878906 C212.93897536 19.48920844 214.81600057 21.21743017 217.22851562 23.25878906 C218.21851563 23.91878906 219.20851563 24.57878906 220.22851562 25.25878906 C220.22851562 26.24878906 220.22851562 27.23878906 220.22851562 28.25878906 C220.95039062 28.46503906 221.67226563 28.67128906 222.41601562 28.88378906 C226.0972178 30.6834879 227.8505659 32.95608111 230.22851562 36.25878906 C230.91601562 38.57128906 230.91601562 38.57128906 231.22851562 40.25878906 C231.88851563 40.58878906 232.54851562 40.91878906 233.22851562 41.25878906 C234.85586328 44.60389258 235.22851562 46.44714741 235.22851562 50.25878906 C235.88851563 50.25878906 236.54851562 50.25878906 237.22851562 50.25878906 C237.73690126 52.29838383 238.23485448 54.34058045 238.72851562 56.38378906 C239.14617187 58.08921875 239.14617187 58.08921875 239.57226562 59.82910156 C240.19305327 63.07345605 240.3485833 65.96693363 240.22851562 69.25878906 C240.88851563 69.25878906 241.54851562 69.25878906 242.22851562 69.25878906 C242.22851562 73.87878906 242.22851562 78.49878906 242.22851562 83.25878906 C240.74351562 83.75378906 240.74351562 83.75378906 239.22851562 84.25878906 C238.01969466 86.25895373 238.01969466 86.25895373 237.22851562 88.25878906 C236.56851562 88.25878906 235.90851563 88.25878906 235.22851562 88.25878906 C234.56851562 89.90878906 233.90851563 91.55878906 233.22851562 93.25878906 C232.56851562 93.25878906 231.90851563 93.25878906 231.22851562 93.25878906 C231.22851562 93.91878906 231.22851562 94.57878906 231.22851562 95.25878906 C230.23851562 95.75378906 230.23851562 95.75378906 229.22851562 96.25878906 C228.89851562 97.24878906 228.56851563 98.23878906 228.22851562 99.25878906 C227.23851562 99.75378906 227.23851562 99.75378906 226.22851562 100.25878906 C226.00164062 101.06316406 225.77476562 101.86753906 225.54101562 102.69628906 C225.10789062 103.54191406 224.67476562 104.38753906 224.22851562 105.25878906 C221.91445343 105.98954555 219.58022693 106.66017164 217.22851562 107.25878906 C216.89851562 108.24878906 216.56851563 109.23878906 216.22851562 110.25878906 C215.23851562 110.25878906 214.24851562 110.25878906 213.22851562 110.25878906 C213.22851562 112.89878906 213.22851562 115.53878906 213.22851562 118.25878906 C212.42414063 118.54753906 211.61976563 118.83628906 210.79101562 119.13378906 C208.09586883 119.99141474 208.09586883 119.99141474 207.22851562 122.25878906 C206.56851563 122.25878906 205.90851563 122.25878906 205.22851562 122.25878906 C205.22851562 122.91878906 205.22851562 123.57878906 205.22851562 124.25878906 C204.23851562 124.75378906 204.23851562 124.75378906 203.22851562 125.25878906 C202.89851562 126.24878906 202.56851563 127.23878906 202.22851562 128.25878906 C201.23851562 128.58878906 200.24851562 128.91878906 199.22851562 129.25878906 C198.01969466 131.25895373 198.01969466 131.25895373 197.22851562 133.25878906 C196.23851562 133.25878906 195.24851562 133.25878906 194.22851562 133.25878906 C194.08414063 133.85691406 193.93976563 134.45503906 193.79101562 135.07128906 C193.34127173 136.82029311 192.79959222 138.54555929 192.22851562 140.25878906 C191.09414063 140.73316406 189.95976563 141.20753906 188.79101562 141.69628906 C185.18505426 142.89218869 185.18505426 142.89218869 183.79101562 145.44628906 C183.60539063 146.04441406 183.41976562 146.64253906 183.22851562 147.25878906 C182.56851563 147.25878906 181.90851563 147.25878906 181.22851562 147.25878906 C181.22851562 148.24878906 181.22851562 149.23878906 181.22851562 150.25878906 C180.23851562 150.25878906 179.24851562 150.25878906 178.22851562 150.25878906 C178.22851562 150.91878906 178.22851562 151.57878906 178.22851562 152.25878906 C177.56851563 152.25878906 176.90851563 152.25878906 176.22851562 152.25878906 C175.98101563 152.83628906 175.73351562 153.41378906 175.47851562 154.00878906 C174.01349284 156.64583007 172.55349485 158.3323777 170.22851562 160.25878906 C167.47851562 161.00878906 167.47851562 161.00878906 165.22851562 161.25878906 C165.22851562 162.24878906 165.22851562 163.23878906 165.22851562 164.25878906 C164.23851562 164.25878906 163.24851562 164.25878906 162.22851562 164.25878906 C162.22851562 165.90878906 162.22851562 167.55878906 162.22851562 169.25878906 C161.58914063 169.36191406 160.94976563 169.46503906 160.29101562 169.57128906 C159.61039063 169.79816406 158.92976562 170.02503906 158.22851562 170.25878906 C157.89851562 171.24878906 157.56851563 172.23878906 157.22851562 173.25878906 C156.56851563 173.25878906 155.90851563 173.25878906 155.22851562 173.25878906 C155.22851562 173.91878906 155.22851562 174.57878906 155.22851562 175.25878906 C153.35351562 177.38378906 153.35351562 177.38378906 151.22851562 179.25878906 C150.56851563 179.25878906 149.90851563 179.25878906 149.22851562 179.25878906 C149.22851562 179.91878906 149.22851562 180.57878906 149.22851562 181.25878906 C146.22851562 183.25878906 146.22851562 183.25878906 143.22851562 183.25878906 C143.12796875 183.86207031 143.02742187 184.46535156 142.92382812 185.08691406 C142.09617348 187.6721724 141.23793998 188.38164942 139.10351562 190.00878906 C135.50522705 192.89630458 132.68655855 196.12655793 129.80664062 199.71972656 C128.22851562 201.25878906 128.22851562 201.25878906 125.22851562 201.25878906 C125.22851562 202.24878906 125.22851562 203.23878906 125.22851562 204.25878906 C122.72248977 207.44827651 121.17371175 209.06588425 117.14819336 209.88745117 C112.61672229 210.31674843 108.12522277 210.48686449 103.57617188 210.57519531 C102.67603867 210.59597641 101.77590546 210.61675751 100.84849548 210.63816833 C97.99607376 210.70312743 95.14356637 210.76229734 92.29101562 210.82128906 C90.34764768 210.8645254 88.40428814 210.90814125 86.4609375 210.95214844 C81.71688284 211.05875321 76.97274272 211.16016901 72.22851562 211.25878906 C72.22851562 211.91878906 72.22851562 212.57878906 72.22851562 213.25878906 C71.56851563 213.25878906 70.90851563 213.25878906 70.22851562 213.25878906 C70.22851562 226.12878906 70.22851562 238.99878906 70.22851562 252.25878906 C69.23851562 252.25878906 68.24851562 252.25878906 67.22851562 252.25878906 C66.89851562 253.24878906 66.56851563 254.23878906 66.22851562 255.25878906 C64.58030319 256.28892184 62.91347861 257.28993535 61.22851562 258.25878906 C60.89851562 258.91878906 60.56851563 259.57878906 60.22851562 260.25878906 C57.66601562 260.88378906 57.66601562 260.88378906 55.22851562 261.25878906 C55.22851562 261.91878906 55.22851562 262.57878906 55.22851562 263.25878906 C53.61914062 264.47753906 53.61914062 264.47753906 51.47851562 265.75878906 C50.78242187 266.18160156 50.08632813 266.60441406 49.36914062 267.04003906 C47.22851563 268.25878906 47.22851563 268.25878906 45.15039062 269.22753906 C43.18786683 270.16094489 43.18786683 270.16094489 41.79882812 271.69238281 C39.10570723 274.3788044 35.69457817 275.98464039 32.40820312 277.85644531 C30.10828387 279.0740632 30.10828387 279.0740632 29.22851562 281.25878906 C27.45117187 281.96972656 27.45117187 281.96972656 25.29101562 282.63378906 C21.95512966 283.75972348 21.95512966 283.75972348 19.72851562 286.44628906 C19.56351562 287.04441406 19.39851563 287.64253906 19.22851562 288.25878906 C17.90851563 288.25878906 16.58851563 288.25878906 15.22851562 288.25878906 C15.22851562 288.91878906 15.22851562 289.57878906 15.22851562 290.25878906 C14.23851562 290.25878906 13.24851562 290.25878906 12.22851562 290.25878906 C11.89851563 291.24878906 11.56851563 292.23878906 11.22851562 293.25878906 C10.23851562 293.25878906 9.24851562 293.25878906 8.22851562 293.25878906 C8.22851562 293.91878906 8.22851562 294.57878906 8.22851562 295.25878906 C4.59851563 295.91878906 0.96851563 296.57878906 -2.77148438 297.25878906 C-2.77148438 297.91878906 -2.77148438 298.57878906 -2.77148438 299.25878906 C-3.76148438 299.25878906 -4.75148438 299.25878906 -5.77148438 299.25878906 C-5.77148438 299.91878906 -5.77148438 300.57878906 -5.77148438 301.25878906 C-9.50212222 302.44282022 -13.06622604 302.39185696 -16.95898438 302.38378906 C-18.21066406 302.38636719 -19.46234375 302.38894531 -20.75195312 302.39160156 C-23.77148438 302.25878906 -23.77148438 302.25878906 -24.77148438 301.25878906 C-24.80057613 299.12337842 -24.75785529 296.98692338 -24.68554688 294.85253906 C-24.64171875 293.551875 -24.59789062 292.25121094 -24.55273438 290.91113281 C-24.52695312 290.23034668 -24.50117188 289.54956055 -24.47460938 288.84814453 C-24.39681995 286.76776371 -24.32966599 284.68722993 -24.26367188 282.60644531 C-23.89902966 272.38633435 -23.89902966 272.38633435 -22.77148438 271.25878906 C-22.67146429 268.6509635 -22.63707933 266.0695561 -22.64450073 263.4611969 C-22.64294074 262.63435345 -22.64138075 261.80751 -22.63977349 260.95561069 C-22.63575964 258.16285361 -22.63895472 255.37015014 -22.64208984 252.57739258 C-22.64073588 250.58364327 -22.63895598 248.58989421 -22.63677979 246.59614563 C-22.63220222 241.16181622 -22.63399703 235.7275057 -22.63715887 230.29317594 C-22.63968397 224.60967027 -22.63734422 218.92616625 -22.63577271 213.24266052 C-22.63395011 203.68659169 -22.63635826 194.13053056 -22.64111328 184.57446289 C-22.64654208 173.53710323 -22.64480368 162.49976208 -22.63928688 151.46240288 C-22.63474156 141.98884249 -22.63411257 132.51528766 -22.63672554 123.04172653 C-22.63828231 117.38297882 -22.6384988 111.72423978 -22.63518906 106.06549263 C-22.63229026 100.73614199 -22.63432288 95.40681505 -22.64008331 90.07746696 C-22.64140076 88.12563491 -22.64103412 86.17380085 -22.63882065 84.2219696 C-22.57494406 71.67266853 -22.57494406 71.67266853 -23.54017639 59.17164898 C-23.86644361 56.47349964 -23.93259611 53.79049693 -23.97680664 51.07470703 C-23.99675186 49.97432098 -24.01669708 48.87393494 -24.0372467 47.74020386 C-24.0539592 46.58875885 -24.07067169 45.43731384 -24.08789062 44.25097656 C-24.10867172 43.04434357 -24.12945282 41.83771057 -24.15086365 40.59451294 C-24.2157745 36.77432451 -24.27496991 32.95407267 -24.33398438 29.13378906 C-24.37722531 26.52961608 -24.42084129 23.92544929 -24.46484375 21.32128906 C-24.5713952 14.96718765 -24.67326554 8.61302445 -24.77148438 2.25878906 C-16.53469441 -0.04710585 -8.4818769 -0.02445071 0 0 Z M70.22851562 84.25878906 C69.03776371 87.8310448 68.97935688 91.16750269 68.87695312 94.89160156 C68.85380035 95.64287323 68.83064758 96.3941449 68.80679321 97.16818237 C68.7591836 98.76016612 68.7139459 100.3522223 68.67089844 101.94433594 C68.60433417 104.3541554 68.52629601 106.7634128 68.44726562 109.17285156 C68.22397659 116.61330629 68.0862225 123.87650664 69.22851562 131.25878906 C72.20411999 132.25065719 74.19657028 132.39661688 77.30395508 132.41992188 C78.33966141 132.42952942 79.37536774 132.43913696 80.44245911 132.44903564 C82.1251313 132.45541046 82.1251313 132.45541046 83.84179688 132.46191406 C85.00293503 132.46761414 86.16407318 132.47331421 87.36039734 132.47918701 C89.82594898 132.48864524 92.2915133 132.49517425 94.75708008 132.49902344 C98.4880264 132.50865231 102.21840357 132.53963636 105.94921875 132.57128906 C118.96433625 132.62857285 130.78225331 132.40754317 143.22851562 128.25878906 C143.22851562 127.26878906 143.22851562 126.27878906 143.22851562 125.25878906 C144.87851562 124.59878906 146.52851562 123.93878906 148.22851562 123.25878906 C148.22851562 122.26878906 148.22851562 121.27878906 148.22851562 120.25878906 C149.21851563 119.92878906 150.20851563 119.59878906 151.22851562 119.25878906 C153.80467986 112.69993414 152.43396932 104.03946609 151.22851562 97.25878906 C150.23851562 96.92878906 149.24851562 96.59878906 148.22851562 96.25878906 C147.66601562 94.44628906 147.66601562 94.44628906 147.22851562 92.25878906 C146.21281043 89.38095767 145.63837711 88.48033581 142.91601562 87.00878906 C140.21017876 86.2536718 138.02143681 86.09919357 135.22851562 86.25878906 C135.22851562 85.59878906 135.22851562 84.93878906 135.22851562 84.25878906 C131.89449533 83.25576412 128.86397782 83.13206945 125.39013672 83.12939453 C124.21566986 83.12624237 123.041203 83.12309021 121.83114624 83.11984253 C120.56751251 83.12186676 119.30387878 83.12389099 118.00195312 83.12597656 C116.70278961 83.12501984 115.4036261 83.12406311 114.06509399 83.12307739 C111.31975105 83.12160528 108.57444071 83.12374005 105.82910156 83.12841797 C102.3071961 83.13412625 98.78536667 83.13082627 95.26346397 83.1248455 C91.90545421 83.12036908 88.54746505 83.12350002 85.18945312 83.12597656 C83.92177094 83.12395233 82.65408875 83.1219281 81.34799194 83.11984253 C80.17982941 83.12299469 79.01166687 83.12614685 77.80810547 83.12939453 C76.26067154 83.13058792 76.26067154 83.13058792 74.68197632 83.13180542 C72.22256566 83.09493702 72.22256566 83.09493702 70.22851562 84.25878906 Z " fill="#FFFFFF" transform="translate(465.771484375,371.7412109375)"/>
</svg>
