<?xml version="1.0" encoding="UTF-8" standalone="no"?><!DOCTYPE svg PUBLIC "-//W3C//DTD SVG 1.1//EN" "http://www.w3.org/Graphics/SVG/1.1/DTD/svg11.dtd"><svg width="100%" height="100%" viewBox="0 0 1595 935" version="1.1" xmlns="http://www.w3.org/2000/svg" xmlns:xlink="http://www.w3.org/1999/xlink" xml:space="preserve" xmlns:serif="http://www.serif.com/" style="fill-rule:evenodd;clip-rule:evenodd;stroke-linejoin:round;stroke-miterlimit:2;"><path d="M186,176l311,0l36,5l35,11l31,15l27,21l17,26l12,29l3,29l-14,19l-31,36l-33,37l-37,41l-26,25l-30,30l-25,24l-27,25l-95,0l0,80l-20,16l-25,19l-42,27l-32,18l-24,13c-6.207,2.094 -8.404,0.345 -8,-6l-3,-423l0,-117Zm154,144l0,103l63,0l47,-1l19,0l17,-7l12,-9l6,-9l5,-14l1,-14l-1,-12l-3,-12l-6,-9l-9,-7l-11,-5l-12,-4l-128,0Z" style="fill:#fff;"/><path d="M69,713c-3.86,4.664 -7.349,9.432 -8,15c-3.382,5.303 -4.298,11.376 -3,18c-0.954,7.999 0.931,14.344 4,20l7,11l7,7l9,3l11,3l12,0l13,-2l16,-3l17,-6l20,-8l25,-12l33,-17c11.634,-6.161 22.573,-12.925 33,-20l34,-21l35,-25l41,-29l57,-50l55,-47l76,-79l96,-108l74,-98l28,-38l13,-27l15,-30l13,-34l2,-34l-5,-27c-2.74,-9.482 -5.662,-16.345 -9,-17c-5.889,-7.178 -12.239,-5.181 -18,-5l-9,1l-13,3l-10,2c-8.529,3.118 -12.361,2.039 -14,-1c2.309,-4.577 5.653,-7.561 10,-9l11,-6l13,-6l20,-7c10.427,-3.241 20.717,-8.233 32,-11l27,-7c10.011,-2.676 19.711,-4.589 29,-3c9.773,-1.536 17.196,4.789 25,9l11,17c4.795,10.751 7.996,22.437 8,36c1.098,9.667 -0.073,19.333 -2,29l-11,39l-10,26l-3,12l676,0l0,146l-137,0l0,495l-153,0l0,-495l-385,0l0,115l246,0l0,138l-246,0l0,243l-156,0l0,-420l-23,28l-28,31l-23,23l-19,22l10,8l10,11l12,13l9,16l12,23l5,30l2,15l0,45l-5,24l-9,21l-10,21l-14,18l-18,18l-22,15l-23,12l-30,10l-32,7l-35,4l-31,1l-203,0l-14,7l-25,13l-27,17l-29,14l-29,13l-31,11c-6.073,2.712 -12.493,3.957 -19,5c-11.034,2.186 -22.037,2.356 -33,0c-6.034,-0.79 -11.727,-2.168 -16,-6c-5.157,-2.729 -9.463,-5.738 -13,-9l-8,-13c-3.089,-4.902 -5.405,-10.11 -6,-16c-1.448,-5.667 -1.62,-11.333 -1,-17c1.133,-7.096 2.588,-13.933 5,-20l5,-21l7,-19l8,-23l9,-20l8,-15c4.354,-5.168 8.27,-5.18 12,-3Zm454,-106l-83,75l4,1l6,0l10,-1l8,0l9,-1l8,-1l7,-1l6,-2l7,-3l6,-2l5,-3l4,-4l4,-5l3,-4l3,-6l2,-7l1,-6l1,-7l1,-5l0,-5l-2,-12l-1,-4l-2,-3l-4,2l-3,4Z" style="fill:#fff;"/></svg>